<?xml version="1.0" standalone="no"?>
<!DOCTYPE svg PUBLIC "-//W3C//DTD SVG 20010904//EN"
 "http://www.w3.org/TR/2001/REC-SVG-20010904/DTD/svg10.dtd">
<svg version="1.0" xmlns="http://www.w3.org/2000/svg"
 width="400.000000pt" height="256.000000pt" viewBox="0 0 400.000000 256.000000"
 preserveAspectRatio="xMidYMid meet">
<metadata>
Created by potrace 1.16, written by Peter Selinger 2001-2019
</metadata>
<g transform="translate(0.000000,256.000000) scale(0.100000,-0.100000)"
fill="#0033cc" stroke="none">
<path d="M3046 2419 c-57 -9 -145 -43 -201 -77 -124 -75 -211 -214 -230 -367
-5 -43 -11 -54 -41 -75 -36 -24 -80 -81 -102 -133 -21 -48 -15 -132 14 -192
23 -50 103 -135 127 -135 6 0 7 -29 3 -82 l-7 -83 63 63 c59 57 67 62 108 62
51 0 126 21 170 46 24 15 35 16 68 6 22 -7 81 -12 131 -12 l92 0 102 -99 c56
-55 105 -97 110 -94 4 3 5 65 1 139 l-7 134 70 68 c53 52 80 88 109 148 34 71
39 88 42 176 5 110 -15 188 -70 274 -109 173 -338 269 -552 233z m208 -54
c149 -35 270 -129 329 -252 30 -64 32 -74 32 -183 0 -107 -2 -119 -30 -175
-19 -39 -56 -86 -103 -133 l-73 -72 -2 -98 -2 -98 -78 70 -77 70 -100 -2
c-131 -1 -135 0 -104 45 33 50 47 108 41 176 -15 172 -220 294 -406 241 -23
-7 -23 -6 -16 37 30 181 178 334 363 375 77 16 155 16 226 -1z"/>
<path d="M481 1951 c-7 -13 -11 -129 -11 -330 l0 -311 25 -6 c53 -13 55 -2 55
250 l0 231 31 -55 c17 -30 55 -102 85 -159 67 -128 90 -161 113 -161 16 0 61
77 198 334 l33 61 2 -250 3 -250 26 -3 c20 -2 28 2 33 20 3 13 6 156 6 319 0
311 -3 336 -45 328 -15 -3 -137 -214 -237 -412 -11 -22 -22 -36 -26 -32 -6 6
-94 169 -170 315 -56 106 -69 125 -90 128 -13 2 -25 -4 -31 -17z"/>
<path d="M2157 1874 c-4 -4 -7 -33 -7 -65 l0 -58 -32 -3 c-28 -2 -33 -7 -33
-28 0 -21 5 -26 33 -28 l32 -3 0 -164 0 -163 30 -32 c25 -27 35 -31 72 -28 58
4 65 32 13 53 -21 9 -40 26 -45 41 -6 14 -10 86 -10 160 l0 134 44 0 c31 0 46
5 50 16 10 26 -13 44 -55 44 l-38 0 -3 63 c-3 54 -6 62 -23 65 -12 2 -24 0
-28 -4z"/>
<path d="M1279 1736 c-50 -35 -66 -59 -85 -122 -32 -112 2 -241 77 -291 45
-30 134 -41 195 -24 56 15 96 48 92 75 -4 29 -31 31 -66 6 -34 -25 -117 -32
-161 -14 -36 15 -66 58 -75 107 l-7 37 156 0 155 0 10 25 c13 35 1 110 -24
147 -39 58 -69 72 -155 75 -67 2 -82 -1 -112 -21z m180 -52 c24 -17 51 -70 51
-101 0 -17 -11 -18 -129 -15 l-129 3 8 28 c13 46 29 70 58 85 37 20 112 20
141 0z"/>
<path d="M1755 1746 c-50 -23 -90 -67 -103 -116 -14 -54 -13 -163 3 -209 39
-118 187 -166 312 -102 47 23 60 48 39 70 -14 13 -21 12 -63 -11 -53 -27 -109
-30 -162 -8 -35 14 -71 72 -71 115 l0 25 155 0 155 0 6 26 c4 14 3 44 0 67 -4
23 -8 48 -8 55 -2 25 -75 89 -108 95 -52 11 -122 7 -155 -7z m154 -60 c31 -16
51 -54 51 -94 l0 -27 -125 0 c-111 0 -125 2 -125 17 0 30 31 84 59 101 32 20
103 22 140 3z"/>
<path d="M657 1151 c-101 -33 -151 -80 -185 -173 -20 -58 -27 -207 -13 -277
15 -68 70 -153 119 -181 54 -32 148 -53 204 -46 101 14 202 77 196 125 -4 37
-34 39 -72 3 -50 -47 -75 -56 -156 -56 -114 1 -178 43 -210 137 -18 56 -15
222 5 277 33 93 95 133 205 134 81 0 95 -5 159 -58 47 -39 71 -38 71 3 0 33
-28 61 -97 95 -70 36 -151 42 -226 17z"/>
<path d="M2087 1063 c-4 -3 -7 -32 -7 -63 0 -54 -1 -56 -32 -65 -22 -7 -34
-17 -36 -32 -3 -18 2 -22 30 -25 l33 -3 3 -159 c2 -138 5 -162 22 -186 39 -55
122 -67 128 -19 3 22 -2 28 -25 34 -52 13 -53 17 -53 181 l0 154 40 0 c28 0
43 5 47 16 8 22 -22 44 -59 44 -27 0 -28 2 -28 46 0 25 -5 54 -10 65 -10 19
-40 26 -53 12z"/>
<path d="M3302 1058 c-6 -6 -12 -35 -12 -64 0 -49 -1 -52 -30 -57 -24 -5 -30
-12 -30 -32 0 -21 5 -25 30 -25 l30 0 0 -145 c0 -166 10 -203 62 -235 39 -24
71 -26 88 -5 18 22 5 45 -30 52 -17 3 -35 14 -40 24 -6 10 -10 83 -10 163 l0
146 45 0 c33 0 47 5 52 16 8 23 -23 44 -63 44 l-33 0 -3 63 c-3 53 -6 62 -23
65 -11 1 -26 -3 -33 -10z"/>
<path d="M1179 937 c-43 -20 -83 -60 -103 -104 -15 -34 -18 -59 -14 -135 3
-80 8 -99 31 -135 54 -85 183 -114 277 -62 121 67 141 303 34 400 -16 15 -44
31 -63 38 -43 14 -128 13 -162 -2z m146 -61 c55 -23 73 -64 73 -162 0 -92 -19
-136 -68 -161 -52 -27 -147 -10 -173 31 -26 39 -39 127 -27 182 14 63 34 92
73 109 42 18 79 18 122 1z"/>
<path d="M1678 929 c-21 -11 -38 -25 -39 -32 -1 -6 -4 -1 -8 13 -8 28 -48 40
-62 18 -5 -7 -9 -106 -9 -219 0 -220 4 -239 48 -224 19 5 20 18 23 168 3 133
7 168 21 189 36 55 153 63 195 13 22 -25 23 -34 23 -189 0 -175 6 -195 50
-181 19 6 20 14 20 178 -1 141 -4 178 -18 207 -35 72 -162 103 -244 59z"/>
<path d="M2399 924 c-81 -45 -122 -159 -98 -272 7 -31 12 -60 11 -63 -1 -4 16
-25 36 -47 27 -29 52 -44 95 -57 67 -19 111 -15 176 18 58 29 73 53 47 73 -17
12 -24 11 -55 -7 -48 -28 -117 -35 -163 -16 -42 18 -78 68 -78 110 l0 27 150
0 c137 0 150 2 160 19 22 43 5 132 -37 181 -54 65 -162 80 -244 34z m151 -43
c31 -9 70 -65 70 -102 l0 -29 -125 0 -125 0 0 28 c0 33 51 99 83 105 33 6 69
6 97 -2z"/>
<path d="M2797 938 c-15 -8 -17 -32 -17 -222 0 -183 2 -215 16 -227 11 -9 20
-10 32 -2 14 9 18 36 22 176 5 164 5 167 32 193 30 31 105 43 151 25 46 -18
57 -61 57 -229 0 -124 3 -152 16 -163 11 -9 20 -10 32 -2 14 8 18 32 20 139 4
178 -3 227 -38 268 -16 18 -47 38 -69 46 -53 17 -135 8 -171 -18 -28 -21 -29
-21 -35 -3 -7 24 -26 32 -48 19z"/>
</g>
</svg>
